<?xml version="1.0" standalone="no"?>
<!DOCTYPE svg PUBLIC "-//W3C//DTD SVG 20010904//EN"
 "http://www.w3.org/TR/2001/REC-SVG-20010904/DTD/svg10.dtd">
<svg version="1.0" xmlns="http://www.w3.org/2000/svg"
 width="225.000000pt" height="225.000000pt" viewBox="0 0 225.000000 225.000000"
 preserveAspectRatio="xMidYMid meet">

<g transform="translate(0.000000,225.000000) scale(0.100000,-0.100000)"
fill="#000000" stroke="none">
<path d="M1198 1885 c-115 -29 -184 -81 -223 -170 -28 -63 -49 -81 -103 -89
-91 -14 -153 -63 -196 -156 -44 -95 -33 -113 48 -80 l52 22 45 -23 c40 -21 42
-24 19 -26 -57 -8 -70 -14 -70 -33 0 -14 14 -27 45 -42 25 -12 45 -25 45 -29
0 -4 -16 -17 -36 -29 -32 -20 -54 -53 -54 -81 0 -6 11 -20 25 -33 l24 -23 -28
-27 c-18 -17 -34 -24 -44 -20 -20 7 -23 24 -4 24 7 0 22 6 32 14 30 21 4 43
-61 52 -53 6 -54 7 -65 48 -21 77 -126 147 -187 125 -31 -12 -27 -33 12 -76
64 -73 71 -108 29 -157 -64 -75 -83 -196 -44 -281 20 -45 101 -122 137 -131
17 -5 25 -16 30 -43 11 -60 43 -137 66 -157 24 -22 24 -20 -17 61 -26 53 -30
70 -29 150 0 109 29 199 93 294 l42 62 34 -30 c42 -36 124 -56 190 -47 43 7
56 16 134 96 73 75 94 90 140 104 69 20 108 21 108 1 0 -9 -19 -18 -56 -26
-75 -15 -98 -28 -153 -87 -52 -56 -63 -89 -62 -197 1 -104 24 -171 85 -240 81
-93 91 -99 134 -81 23 10 43 12 58 7 20 -8 19 -10 -22 -29 l-43 -20 60 -41
c34 -22 63 -37 66 -33 2 4 -15 20 -40 36 -24 15 -44 31 -44 34 1 10 69 39 110
47 47 9 107 45 149 89 l34 35 29 -21 c16 -11 31 -18 34 -15 3 3 -9 15 -26 27
l-30 22 19 26 c70 100 100 207 108 380 6 141 -10 257 -45 332 -24 49 -52 47
-68 -5 -6 -22 -12 -35 -13 -28 -2 18 -72 63 -100 63 -23 0 -23 -2 -18 -47 3
-27 9 -56 13 -66 5 -15 0 -14 -31 7 -25 17 -51 26 -77 26 -64 0 -62 -26 14
-127 35 -48 37 -53 18 -53 -55 0 -86 -52 -69 -114 5 -19 14 -38 20 -41 10 -7
3 -25 -10 -25 -4 0 -13 24 -21 53 -10 38 -13 114 -12 279 1 133 -2 237 -8 253
-8 22 -6 32 10 55 21 29 27 90 10 90 -7 0 -8 13 -4 34 5 28 2 37 -13 47 -13 8
-18 20 -15 38 2 16 -2 32 -11 39 -23 20 -106 23 -169 7z m57 -174 c55 -25 101
-81 121 -146 13 -46 14 -83 8 -215 -7 -175 -1 -162 -79 -175 -64 -11 -108 -40
-184 -122 l-73 -77 -64 -4 c-77 -5 -146 17 -171 54 -14 23 -14 26 2 44 10 11
30 20 44 20 50 0 102 21 135 55 45 44 52 83 30 145 -15 41 -15 51 -4 65 32 39
3 164 -56 243 l-26 33 23 26 c63 68 206 94 294 54z m485 -323 c75 -170 60
-468 -32 -640 -40 -76 -118 -163 -169 -189 -101 -51 -248 4 -321 122 -33 52
-50 61 -25 12 21 -40 89 -108 129 -129 l33 -17 -29 -10 c-26 -9 -32 -5 -82 44
-76 75 -105 138 -111 241 -3 49 -1 101 6 126 17 62 80 126 147 152 77 28 91
27 99 -12 13 -62 56 -193 70 -212 7 -10 18 -15 24 -12 5 4 -1 17 -15 31 -27
27 -32 76 -9 95 13 11 12 15 -5 37 -22 28 -26 73 -10 103 13 24 59 34 94 20
25 -9 23 -4 -21 45 -27 30 -59 73 -72 95 -20 36 -21 41 -6 46 32 13 93 -15
133 -62 l40 -45 -18 58 c-9 32 -20 75 -24 96 -7 37 -6 38 16 32 61 -19 87 -56
117 -165 7 -27 8 -15 4 46 -5 76 0 134 13 134 3 0 14 -19 24 -42z m-1184 -113
c47 -28 84 -79 84 -118 0 -20 -6 -26 -32 -29 -18 -3 -41 -8 -50 -13 -15 -6
-18 -2 -18 27 0 33 -41 105 -69 123 -6 3 -11 13 -11 21 0 22 48 17 96 -11z
m192 -161 c12 -4 22 -10 22 -14 0 -11 -74 -30 -119 -30 -55 0 -101 -20 -134
-59 -26 -32 -43 -88 -34 -113 3 -7 8 7 12 31 10 56 52 104 106 120 45 14 106
7 135 -14 16 -11 13 -13 -27 -20 -59 -10 -103 -38 -123 -79 -23 -50 -19 -57 7
-13 29 48 72 77 116 77 l34 0 -47 -50 c-25 -27 -46 -53 -46 -57 1 -4 10 3 22
17 17 20 20 21 13 5 -4 -11 -16 -41 -26 -66 -10 -26 -21 -71 -24 -100 -10 -84
-10 -83 -56 -57 -81 45 -129 121 -129 204 0 86 55 180 125 210 31 14 133 18
173 8z"/>
<path d="M1067 1639 c-42 -24 -61 -113 -31 -143 16 -17 59 -23 50 -7 -3 5 2 8
11 7 9 0 18 5 21 13 3 9 0 11 -9 6 -8 -5 -11 -4 -6 1 5 5 14 9 20 9 11 0 24
34 26 68 1 19 -33 57 -51 57 -7 0 -21 -5 -31 -11z m57 -21 c9 -15 12 -34 8
-53 l-6 -30 -6 30 c-6 35 -39 45 -61 19 -8 -10 -9 -15 -4 -12 17 11 39 -8 31
-27 -4 -11 -13 -15 -26 -12 -24 6 -26 -6 -4 -27 8 -9 11 -16 6 -16 -21 0 -34
31 -29 68 6 34 45 82 67 82 5 0 16 -10 24 -22z"/>
<path d="M1491 1034 c-13 -46 -1 -64 40 -64 60 0 57 91 -3 98 -23 3 -28 -2
-37 -34z m59 11 c18 -21 4 -65 -20 -65 -25 0 -31 12 -24 49 7 33 24 40 44 16z"/>
</g>
</svg>
